<svg width="117" height="26" viewBox="0 0 117 26" fill="none" xmlns="http://www.w3.org/2000/svg">
<path d="M108.914 20.3803C108.914 18.7436 110.243 17.4156 111.879 17.4156C113.515 17.4156 114.843 18.7436 114.843 20.3803C114.843 22.0171 113.515 23.3442 111.879 23.3442C110.243 23.3442 108.914 22.0171 108.914 20.3803Z" fill="#CBD5E0"/>
<path d="M14.3629 12.5291C14.3629 10.6513 14.0001 9.25819 13.2743 8.35058C12.5477 7.44384 11.447 6.99089 9.96727 6.99089H8.39316V18.474H9.59749C11.2411 18.474 12.4456 17.9868 13.2125 17.0088C13.9785 16.0326 14.3629 14.5391 14.3629 12.5291ZM19.9766 12.3336C19.9766 15.7547 19.057 18.3908 17.2177 20.2412C15.3785 22.0924 12.793 23.018 9.46027 23.018H2.98438V2.51811H9.91232C13.1258 2.51811 15.6067 3.35965 17.355 5.04189C19.1024 6.72498 19.9766 9.1544 19.9766 12.3336Z" fill="#CBD5E0"/>
<path d="M37.9141 23.0175H43.0672V2.43182H37.9141V23.0175Z" fill="#CBD5E0"/>
<path d="M50.3071 15.339C50.3071 16.6515 50.4786 17.6526 50.8209 18.3406C51.1641 19.0294 51.7388 19.3734 52.5469 19.3734C53.3464 19.3734 53.9117 19.0294 54.2411 18.3406C54.5705 17.6526 54.7344 16.6515 54.7344 15.339C54.7344 14.0334 54.5679 13.0485 54.2342 12.3837C53.8997 11.7172 53.3293 11.3834 52.5204 11.3834C51.7295 11.3834 51.1641 11.7155 50.8209 12.376C50.4786 13.0374 50.3071 14.0248 50.3071 15.339ZM59.9793 15.339C59.9793 17.8396 59.3238 19.7904 58.0096 21.1886C56.6963 22.5878 54.8579 23.2878 52.4946 23.2878C50.2282 23.2878 48.424 22.5723 47.085 21.1414C45.7442 19.7105 45.0742 17.777 45.0742 15.339C45.0742 12.8461 45.7305 10.9091 47.0447 9.52793C48.3589 8.1468 50.2015 7.45624 52.5743 7.45624C54.0404 7.45624 55.3375 7.77623 56.4613 8.41532C57.5859 9.05442 58.4541 9.96974 59.064 11.1621C59.6748 12.3528 59.9793 13.746 59.9793 15.339Z" fill="#CBD5E0"/>
<path d="M62.0273 23.0176H67.1813V15.1391V7.72646H62.0273V23.0176Z" fill="#CBD5E0"/>
<path d="M62.0273 5.87687H67.1813V2.43091H62.0273V5.87687Z" fill="#CBD5E0"/>
<path d="M77.6205 19.1174C78.3163 19.1174 79.1449 18.9407 80.1116 18.5898V22.4372C79.4168 22.7426 78.7563 22.9614 78.1284 23.0909C77.5004 23.2222 76.7635 23.2874 75.9203 23.2874C74.19 23.2874 72.9427 22.8525 72.1766 21.9843C71.414 21.1162 71.0314 19.7831 71.0314 17.9842V11.6808H69.2266V7.72779H71.0314V3.82288L76.2249 2.91954V7.72779H79.513V11.6808H76.2249V17.6325C76.2249 18.6224 76.6906 19.1174 77.6205 19.1174Z" fill="#CBD5E0"/>
<path d="M89.5472 19.1174C90.2429 19.1174 91.0717 18.9407 92.0385 18.5898V22.4372C91.3445 22.7426 90.683 22.9614 90.055 23.0909C89.4263 23.2222 88.6919 23.2874 87.8469 23.2874C86.1167 23.2874 84.8694 22.8525 84.105 21.9843C83.3407 21.1162 82.9582 19.7831 82.9582 17.9842V11.6808H81.1523V7.72779H82.9582V3.76369L88.1507 2.91954V7.72779H91.4405V11.6808H88.1507V17.6325C88.1507 18.6224 88.6165 19.1174 89.5472 19.1174Z" fill="#CBD5E0"/>
<path d="M98.5422 13.4761C98.6126 12.6388 98.8521 12.0255 99.2604 11.6335C99.6705 11.2423 100.177 11.0467 100.782 11.0467C101.443 11.0467 101.968 11.2663 102.357 11.7089C102.749 12.149 102.953 12.7384 102.97 13.4761H98.5422ZM105.81 9.25896C104.585 8.05798 102.847 7.4566 100.599 7.4566C98.2352 7.4566 96.4166 8.14716 95.1419 9.52829C93.8679 10.9094 93.2305 12.8911 93.2305 15.4732C93.2305 17.9738 93.9194 19.9022 95.2937 21.2559C96.6688 22.6096 98.5997 23.2873 101.087 23.2873C102.281 23.2873 103.309 23.2058 104.17 23.0437C105.026 22.8833 105.855 22.5933 106.658 22.1747L105.867 18.7287C105.282 18.9672 104.727 19.1508 104.202 19.2717C103.443 19.4476 102.611 19.5359 101.705 19.5359C100.712 19.5359 99.9278 19.2931 99.353 18.8076C98.7783 18.3212 98.472 17.6504 98.4369 16.796H107.648V14.448C107.648 12.1893 107.036 10.4591 105.81 9.25896Z" fill="#CBD5E0"/>
<path d="M26.8157 13.4761C26.886 12.6388 27.1254 12.0255 27.5336 11.6335C27.9429 11.2423 28.4499 11.0467 29.0565 11.0467C29.7153 11.0467 30.2402 11.2663 30.6306 11.7089C31.0226 12.149 31.2259 12.7384 31.244 13.4761H26.8157ZM34.0843 9.25896C32.8584 8.05798 31.1212 7.4566 28.872 7.4566C26.5077 7.4566 24.6899 8.14716 23.416 9.52829C22.1421 10.9094 21.5039 12.8911 21.5039 15.4732C21.5039 17.9738 22.1919 19.9022 23.5679 21.2559C24.9422 22.6096 26.8731 23.2873 29.3601 23.2873C30.5542 23.2873 31.5818 23.2058 32.4431 23.0437C33.2992 22.8833 34.1281 22.5933 34.9327 22.1747L34.14 18.7287C33.5558 18.9672 32.9999 19.1508 32.4758 19.2717C31.7157 19.4476 30.8844 19.5359 29.9785 19.5359C28.986 19.5359 28.2012 19.2931 27.6264 18.8076C27.0508 18.3212 26.7454 17.6504 26.7103 16.796H35.9217V14.448C35.9217 12.1893 35.3093 10.4591 34.0843 9.25896Z" fill="#CBD5E0"/>
</svg>
