<svg width="90" height="40" viewBox="0 0 90 40" fill="none" xmlns="http://www.w3.org/2000/svg">
<g clip-path="url(#clip0)">
<path d="M8.52165 6.45888C3.9412 6.45888 0.972656 9.26863 0.972656 12.7938C0.972611 16.3167 3.9412 19.1259 8.52165 19.1259C9.92149 19.1259 11.7034 18.7174 12.7416 17.5427L12.9747 18.8697H15.5203V12.213H9.15789V14.563H11.9143C11.7034 15.6692 10.3889 16.4017 8.4375 16.4017C5.89301 16.4017 4.9171 14.5978 4.9171 12.7938C4.9171 10.9887 5.89301 9.18363 8.4375 9.18363C10.0278 9.18363 11.2997 9.81347 11.4271 10.8529H15.3713C15.0108 7.80471 11.6602 6.45888 8.52165 6.45888ZM61.3157 6.71561V8.92804H64.9205V6.71561H61.3157ZM22.2397 9.77981C18.9954 9.77981 16.3021 11.7207 16.3021 14.4272C16.3021 17.3898 18.7413 19.1259 22.3256 19.1259C24.7852 19.1259 27.138 18.2416 27.7958 16.198H24.4242C24.0847 16.8444 23.2364 17.1673 22.3665 17.1673C20.8399 17.1673 19.9699 16.3675 19.9068 15.158H27.9869C28.1557 12.1623 26.1845 9.77981 22.2397 9.77981ZM34.339 9.77981C30.9247 9.77981 28.5498 11.8057 28.5498 14.4608C28.5498 17.116 30.9247 19.1259 34.339 19.1259C37.7533 19.1259 40.1487 17.116 40.1487 14.4608C40.1487 11.8057 37.7533 9.77981 34.339 9.77981ZM53.4961 9.77981C50.3774 9.77981 48.6609 11.7549 48.6609 14.1043C48.6609 16.5888 50.1654 18.4955 53.4961 18.4955C54.6617 18.4955 55.7636 18.0202 56.4208 17.2027H56.4646V18.0362C56.4646 19.127 56.2935 20.0969 54.5764 20.0969C54.0266 20.0969 53.5802 20.0444 53.2618 19.9086C52.923 19.7728 52.7319 19.5338 52.6466 19.143H49.0418C49.466 21.5089 51.8825 21.9687 54.449 21.9687C59.6043 21.9687 59.9398 19.244 59.9398 17.7977V10.0348H56.4845V11.141H56.4424C55.8068 10.2391 54.8101 9.77981 53.4961 9.77981ZM71.1976 9.77981C69.9467 9.77981 68.6731 9.94925 67.7008 10.3914C66.7229 10.8512 66.0463 11.6009 65.9837 12.759H69.3554C69.5203 12.0099 70.1628 11.6517 71.1578 11.6517C71.8969 11.6517 72.8976 11.9072 72.8976 12.5707C72.8976 13.1156 72.5565 13.2862 71.9424 13.3889C69.4407 13.7973 65.5402 13.5754 65.5402 16.4531C65.5402 18.2741 67.1891 19.1259 69.2928 19.1259C70.6063 19.1259 71.9879 18.8195 72.9204 18.0362C72.9602 18.3266 73 18.5976 73.1307 18.8697H76.7583C76.3318 18.1726 76.3318 17.3539 76.3318 16.6065V12.7425C76.3318 10.2396 73.8074 9.77981 71.1976 9.77981ZM47.5971 9.86425C46.0489 9.86425 44.819 10.461 44.2891 11.5849H44.2453V10.0348H40.7474V18.8697H44.3534V14.4951C44.3534 13.39 45.2853 12.4002 47.066 12.4002C47.5539 12.4002 47.9786 12.4686 48.4454 12.5707V9.93214C48.1697 9.88079 47.8729 9.86425 47.5971 9.86425ZM61.3157 10.0348V18.8697H64.9205V10.0348H61.3157ZM22.2397 11.7372C23.4485 11.7372 24.3179 12.5536 24.3821 13.5412H19.9068C20.1183 12.468 20.9678 11.7372 22.2397 11.7372ZM34.339 11.9928C36.014 11.9928 36.544 13.3375 36.544 14.4608C36.544 15.5836 36.014 16.9123 34.339 16.9123C32.6634 16.9123 32.1545 15.5836 32.1545 14.4608C32.1545 13.3375 32.6634 11.9928 34.339 11.9928ZM54.3643 11.9928C55.9762 11.9928 56.5277 13.1002 56.5277 14.2235C56.5277 15.3292 55.8705 16.2825 54.3433 16.2825C52.8587 16.2825 52.2657 15.2436 52.2657 14.2052C52.2657 13.1156 52.774 11.9928 54.3643 11.9928ZM72.8521 14.7335C72.9374 16.5552 72.3632 17.3379 70.6461 17.3379C69.8387 17.3379 69.1393 17.0481 69.1393 16.3338C69.1393 15.6355 69.8216 15.3634 70.629 15.2093C71.4136 15.0393 72.3461 14.9886 72.8521 14.7335ZM31.0305 21.0782V23.8018H35.5472V33.234H39.4903V23.8018H44.0088V21.0782H31.0305ZM65.3526 21.0782V33.234H68.9574V28.4161C68.9574 27.4462 69.5487 26.526 70.9076 26.526C72.8806 26.526 72.71 27.752 72.71 28.9609V33.234H76.3148V27.5643C76.3148 26.2875 76.0191 24.1424 72.3518 24.1424C71.0384 24.1424 69.5487 24.7043 68.9972 25.608H68.9574V21.0782H65.3526ZM46.7653 24.1424C43.521 24.1424 40.8265 26.0838 40.8265 28.7903C40.8265 31.7524 43.2657 33.4902 46.8494 33.4902C49.3085 33.4902 51.6624 32.6047 52.3203 30.5606H48.9497C48.6092 31.2076 47.7614 31.5316 46.8909 31.5316C45.3643 31.5316 44.4955 30.7318 44.4318 29.5223H52.5119C52.6807 26.526 50.7095 24.1424 46.7653 24.1424ZM59.0812 24.1424C55.5373 24.1424 53.3107 26.1511 53.3107 28.9609C53.3107 31.668 55.771 33.4902 59.0812 33.4902C62.0037 33.4902 64.2951 32.1272 64.6135 29.7607H61.1167C60.9461 30.6969 60.3093 31.276 59.0585 31.276C57.529 31.276 56.9161 30.1002 56.9161 28.9609C56.9161 27.7349 57.2345 26.3554 59.2461 26.3554C60.1615 26.3554 60.9859 26.8831 61.0087 27.6327H64.5054C64.2553 25.3011 61.8161 24.1424 59.0812 24.1424ZM46.7653 26.1004C47.9741 26.1004 48.8423 26.9173 48.9065 27.9054H44.4318C44.6439 26.8318 45.4928 26.1004 46.7653 26.1004Z" fill="#CBD5E0"/>
<path d="M88.6217 38.6681H81.1562V37.2368H88.6217V38.6681ZM86.7551 28.6293L84.888 0.528878L83.0217 28.6293H86.7551ZM88.6219 21.7508L84.8885 35.7989H88.6219V21.7508ZM81.1565 21.7508L84.8885 35.7989H81.1565V21.7508Z" stroke="#CBD5E0" stroke-width="0.858288"/>
</g>
<defs>
<clipPath id="clip0">
<rect width="89.0634" height="39.5837" fill="white" transform="translate(0.449219)"/>
</clipPath>
</defs>
</svg>
