<svg width="114" height="39" viewBox="0 0 114 39" fill="none" xmlns="http://www.w3.org/2000/svg">
<g clip-path="url(#clip0)">
<path d="M48.2872 20.2848C48.2872 25.596 44.1196 29.5098 39.0049 29.5098C33.8903 29.5098 29.7227 25.596 29.7227 20.2848C29.7227 14.9361 33.8903 11.0598 39.0049 11.0598C44.1196 11.0598 48.2872 14.9361 48.2872 20.2848ZM44.2239 20.2848C44.2239 16.9658 41.8084 14.6949 39.0049 14.6949C36.2015 14.6949 33.786 16.9658 33.786 20.2848C33.786 23.5705 36.2015 25.8747 39.0049 25.8747C41.8084 25.8747 44.2239 23.5663 44.2239 20.2848Z" fill="#CBD5E0"/>
<path d="M68.3146 20.2848C68.3146 25.596 64.1469 29.5098 59.0323 29.5098C53.9176 29.5098 49.75 25.596 49.75 20.2848C49.75 14.9402 53.9176 11.0598 59.0323 11.0598C64.1469 11.0598 68.3146 14.9361 68.3146 20.2848ZM64.2512 20.2848C64.2512 16.9658 61.8357 14.6949 59.0323 14.6949C56.2288 14.6949 53.8133 16.9658 53.8133 20.2848C53.8133 23.5705 56.2288 25.8747 59.0323 25.8747C61.8357 25.8747 64.2512 23.5663 64.2512 20.2848Z" fill="#CBD5E0"/>
<path d="M87.5042 11.6171V28.1789C87.5042 34.9916 83.4742 37.774 78.71 37.774C74.2253 37.774 71.5261 34.7836 70.5082 32.338L74.0459 30.8698C74.6759 32.3713 76.2194 34.1431 78.7058 34.1431C81.7554 34.1431 83.6453 32.2673 83.6453 28.7362V27.4094H83.5034C82.594 28.5282 80.8418 29.5056 78.6307 29.5056C74.0042 29.5056 69.7656 25.4879 69.7656 20.318C69.7656 15.1108 74.0042 11.0598 78.6307 11.0598C80.8376 11.0598 82.5898 12.0372 83.5034 13.1227H83.6453V11.6212H87.5042V11.6171ZM83.9331 20.318C83.9331 17.0697 81.7596 14.6949 78.9937 14.6949C76.1902 14.6949 73.8415 17.0697 73.8415 20.318C73.8415 23.5331 76.1902 25.8747 78.9937 25.8747C81.7596 25.8747 83.9331 23.5331 83.9331 20.318Z" fill="#CBD5E0"/>
<path d="M93.8656 1.90959V28.9441H89.9023V1.90959H93.8656Z" fill="#CBD5E0"/>
<path d="M109.308 23.3209L112.462 25.4172C111.444 26.9186 108.991 29.5056 104.752 29.5056C99.496 29.5056 95.5703 25.4546 95.5703 20.2806C95.5703 14.7947 99.5294 11.0556 104.298 11.0556C109.099 11.0556 111.448 14.8654 112.216 16.9242L112.637 17.9723L100.268 23.0797C101.215 24.9305 102.687 25.8747 104.752 25.8747C106.822 25.8747 108.257 24.8598 109.308 23.3209ZM99.6003 20.0019L107.869 16.5789C107.414 15.4269 106.046 14.6241 104.435 14.6241C102.37 14.6241 99.496 16.4417 99.6003 20.0019Z" fill="#CBD5E0"/>
<path d="M14.7245 17.8856V13.9718H27.9533C28.0826 14.6539 28.1494 15.4608 28.1494 16.3342C28.1494 19.2706 27.3442 22.9015 24.7494 25.4885C22.2254 28.1088 19.0006 29.5062 14.7287 29.5062C6.81056 29.5062 0.152344 23.0762 0.152344 15.1821C0.152344 7.28802 6.81056 0.857956 14.7287 0.857956C19.1091 0.857956 22.2296 2.57153 24.5741 4.805L21.8041 7.56668C20.1228 5.99452 17.845 4.77172 14.7245 4.77172C8.94235 4.77172 4.42011 9.4175 4.42011 15.1821C4.42011 20.9467 8.94235 25.5925 14.7245 25.5925C18.4749 25.5925 20.6109 24.091 21.9793 22.7268C23.089 21.6205 23.819 20.04 24.1069 17.8814L14.7245 17.8856Z" fill="#CBD5E0"/>
</g>
<defs>
<clipPath id="clip0">
<rect width="113.473" height="38.2643" fill="white" transform="translate(0 0.661835)"/>
</clipPath>
</defs>
</svg>
