<svg width="86" height="37" viewBox="0 0 86 37" fill="none" xmlns="http://www.w3.org/2000/svg">
<g clip-path="url(#clip0)">
<path d="M14.0731 33.3889C14.0731 34.9958 14.6323 35.6249 15.4874 35.6249C17.6271 35.6249 21.0362 30.6121 20.9067 25.3491C24.1513 21.9137 28.0407 16.5321 28.0407 12.2217C28.0407 11.1783 27.7459 10.2997 26.5138 10.2997C24.63 10.2997 21.9383 13.5584 20.2309 16.7944C18.5842 20.1468 17.0439 23.9704 14.9992 29.2183C14.5215 30.5345 14.0731 32.1288 14.0731 33.3889ZM60.3566 26.2348V28.9356C60.3566 28.9356 61.6905 29.9029 64.2928 29.9029C68.2428 29.9029 69.9781 27.6909 69.9781 25.2769C69.9781 20.0454 62.9599 21.2959 62.9599 17.8244C62.9599 16.5198 63.9948 15.5758 65.7321 15.5758C67.7609 15.5758 69.2553 16.6624 69.2553 16.6624V14.1626C69.2553 14.1626 67.8662 13.39 65.8636 13.39C62.486 13.39 60.3816 15.5071 60.3816 18.0506C60.3816 23.2227 67.378 22.2109 67.378 25.5815C67.378 27.1306 66.109 27.692 64.468 27.692C62.119 27.692 60.3566 26.2348 60.3566 26.2348ZM85.848 29.5319H83.3358V20.5528C83.3358 17.2113 82.1205 15.5405 79.69 15.5405C78.4338 15.5405 77.3947 16.0146 76.5726 16.9627C75.7505 17.9109 75.3395 19.1076 75.3395 20.5528V29.5319H72.8273V13.7878H75.3395V16.4015H75.4008C76.5854 14.413 78.3011 13.4188 80.5478 13.4187C82.2635 13.4188 83.5757 13.9748 84.4846 15.087C85.3935 16.1991 85.848 17.8058 85.848 19.9071L85.848 29.5319ZM57.614 29.5319H55.1018V20.4913C55.1018 18.7488 54.8337 17.4881 54.2976 16.709C53.7614 15.93 52.8602 15.5405 51.5938 15.5405C50.5215 15.5405 49.6101 16.0325 48.8595 17.0165C48.1089 18.0006 47.7336 19.1793 47.7336 20.5528V29.5319H45.2213V20.1838C45.2213 17.0883 44.0316 15.5405 41.6521 15.5405C40.5492 15.5405 39.6403 16.0043 38.9254 16.932C38.2106 17.8596 37.8531 19.0666 37.8531 20.5528V29.5319H35.3409V13.7878H37.8531V16.2785H37.9144C39.0275 14.372 40.6513 13.4188 42.7857 13.4187C43.858 13.4188 44.7924 13.7186 45.589 14.3182C46.3855 14.9178 46.9319 15.7045 47.2281 16.6783C48.3922 14.5053 50.1283 13.4188 52.4364 13.4187C55.8881 13.4188 57.614 15.5559 57.614 19.8302L57.614 29.5319ZM4.80179 36.9022C2.65656 36.9022 0.828125 35.5508 0.828125 32.4875C0.828125 27.7585 4.88265 24.1673 6.72224 23.1517C6.72224 23.1517 9.29604 24.6399 11.9662 25.5975C6.66083 22.2284 3.27073 16.09 3.27073 9.27685C3.27073 2.90958 6.61924 0.0428009 9.64246 0.0428009C12.0745 0.0428009 17.8403 2.72806 17.8403 13.032C17.8403 24.1194 12.0762 36.9022 4.80179 36.9022Z" fill="#CBD5E0"/>
</g>
<defs>
<clipPath id="clip0">
<rect width="85.105" height="36.9448" fill="white" transform="translate(0.785156)"/>
</clipPath>
</defs>
</svg>
